<?xml version="1.0" encoding="UTF-8"?>
<svg version="1.1" xmlns="http://www.w3.org/2000/svg" width="32" height="32">
<path d="M0 0 C6.93 0 13.86 0 21 0 C21.99 2.31 22.98 4.62 24 7 C25.5159375 7.4640625 25.5159375 7.4640625 27.0625 7.9375 C28.031875 8.288125 29.00125 8.63875 30 9 C32.17777495 14.64241692 32.24970866 20.00699215 32 26 C28.78548731 27.60725635 25.56387464 27.05748185 22 27 C23.65 27.33 25.3 27.66 27 28 C27 28.99 27 29.98 27 31 C24.73744135 32.13127933 23.48212091 32.12890585 20.97265625 32.1328125 C20.18052734 32.13410156 19.38839844 32.13539062 18.57226562 32.13671875 C17.74404297 32.13285156 16.91582031 32.12898438 16.0625 32.125 C15.23814453 32.12886719 14.41378906 32.13273437 13.56445312 32.13671875 C12.77103516 32.13542969 11.97761719 32.13414063 11.16015625 32.1328125 C10.43449463 32.13168457 9.70883301 32.13055664 8.96118164 32.12939453 C7 32 7 32 4 31 C4.33 29.68 4.66 28.36 5 27 C6.65 27 8.3 27 10 27 C9.67 24.69 9.34 22.38 9 20 C8.01 20 7.02 20 6 20 C2.22222222 19.22222222 2.22222222 19.22222222 1 18 C0.84417697 16.65984779 0.74955858 15.31241097 0.68359375 13.96484375 C0.64548584 13.23644287 0.60737793 12.50804199 0.56811523 11.75756836 C0.52501221 10.8269458 0.48190918 9.89632324 0.4375 8.9375 C0.293125 5.988125 0.14875 3.03875 0 0 Z M6 2 C4.70366379 3.06645115 4.70366379 3.06645115 4.9375 5.5625 C4.958125 6.366875 4.97875 7.17125 5 8 C6.65 8 8.3 8 10 8 C10 6.35 10 4.7 10 3 C8.05396726 2.40929986 8.05396726 2.40929986 6 2 Z M11 16 C11 16.66 11 17.32 11 18 C11.66 17.67 12.32 17.34 13 17 C12.34 16.67 11.68 16.34 11 16 Z M22 20 C22 20.99 22 21.98 22 23 C25.04913228 24.01111093 25.04913228 24.01111093 28 23 C28 22.01 28 21.02 28 20 C26.02 20 24.04 20 22 20 Z " fill="#F2C936" transform="translate(0,0)"/>
<path d="M0 0 C3 1 3 1 4 3 C4.33 2.34 4.66 1.68 5 1 C6.65 1 8.3 1 10 1 C10.33 1.99 10.66 2.98 11 4 C12.9490625 3.7215625 12.9490625 3.7215625 14.9375 3.4375 C17.15234375 3.12109375 17.15234375 3.12109375 19 3 C19.33 3.33 19.66 3.66 20 4 C19.9140625 5.99609375 19.9140625 5.99609375 19.625 8.4375 C19.53476562 9.24058594 19.44453125 10.04367187 19.3515625 10.87109375 C19 13 19 13 18 15 C16.02 15 14.04 15 12 15 C12 15.99 12 16.98 12 18 C7.14165467 17.55833224 5.24676907 16.57144598 2 13 C1.319375 12.690625 0.63875 12.38125 -0.0625 12.0625 C-2.77480081 10.57510923 -3.66279726 8.74126563 -5 6 C-5 5.01 -5 4.02 -5 3 C-3.35 3 -1.7 3 0 3 C0 2.01 0 1.02 0 0 Z " fill="#098F3E" transform="translate(10,5)"/>
<path d="M0 0 C10.50909091 4.01818182 10.50909091 4.01818182 12 7 C14.52733235 7.65555119 14.52733235 7.65555119 17 8 C17 8.99 17 9.98 17 11 C14.73744135 12.13127933 13.48212091 12.12890585 10.97265625 12.1328125 C10.18052734 12.13410156 9.38839844 12.13539062 8.57226562 12.13671875 C7.74404297 12.13285156 6.91582031 12.12898438 6.0625 12.125 C5.23814453 12.12886719 4.41378906 12.13273437 3.56445312 12.13671875 C2.77103516 12.13542969 1.97761719 12.13414063 1.16015625 12.1328125 C0.07166382 12.13112061 0.07166382 12.13112061 -1.03881836 12.12939453 C-3 12 -3 12 -6 11 C-5.67 9.68 -5.34 8.36 -5 7 C-3.35 7 -1.7 7 0 7 C0 4.69 0 2.38 0 0 Z " fill="#0E0B0A" transform="translate(10,20)"/>
<path d="M0 0 C3.3 0 6.6 0 10 0 C10.99 2.97 11.98 5.94 13 9 C12.01 9.495 12.01 9.495 11 10 C10.01 9.34 9.02 8.68 8 8 C8.33 7.34 8.66 6.68 9 6 C7.35 6 5.7 6 4 6 C3.67 6.99 3.34 7.98 3 9 C0.9375 7.3125 0.9375 7.3125 -1 5 C-0.75 2.25 -0.75 2.25 0 0 Z " fill="#4AAA37" transform="translate(11,0)"/>
<path d="M0 0 C0.66 0 1.32 0 2 0 C3.20272819 2.40545638 3.10071472 3.94996953 3.0625 6.625 C3.05347656 7.44226563 3.04445313 8.25953125 3.03515625 9.1015625 C3.02355469 9.72804688 3.01195312 10.35453125 3 11 C-0.04983996 12.52491998 -2.6423369 12.23562548 -6 12 C-7.9375 10.5 -7.9375 10.5 -9 9 C-6.23735711 8.40267181 -3.83967231 8 -1 8 C-0.67 5.36 -0.34 2.72 0 0 Z " fill="#F1CA34" transform="translate(29,15)"/>
<path d="M0 0 C3.7910119 1.44950455 7.3874638 3.15172566 11 5 C11 5.66 11 6.32 11 7 C8.01405576 8.49297212 5.29146376 8.11755228 2 8 C1.34 7.67 0.68 7.34 0 7 C0 4.69 0 2.38 0 0 Z " fill="#118C42" transform="translate(10,20)"/>
<path d="M0 0 C4.39158329 1.4638611 4.87947433 3.97831338 7 8 C6.34 8.66 5.68 9.32 5 10 C1.46428571 9.46428571 1.46428571 9.46428571 0 8 C-0.14115161 5.32941149 -0.04247107 2.67567762 0 0 Z " fill="#118C40" transform="translate(1,10)"/>
<path d="M0 0 C2 3 2 3 2.875 5.5625 C4.24728902 8.53579288 5.04165851 8.76735771 8 10 C10.01254782 11.31431695 12.01310269 12.64721885 14 14 C14.99 14.66 15.98 15.32 17 16 C16.34 16.33 15.68 16.66 15 17 C7.76035379 14.31864955 3.04636996 10.87419705 -0.390625 3.953125 C-1 2 -1 2 0 0 Z " fill="#BCBE36" transform="translate(4,8)"/>
<path d="M0 0 C2.64 0.66 5.28 1.32 8 2 C8 3.32 8 4.64 8 6 C6.68 5.34 5.36 4.68 4 4 C4.33 3.34 4.66 2.68 5 2 C3.35 1.67 1.7 1.34 0 1 C0 0.67 0 0.34 0 0 Z " fill="#AEC537" transform="translate(15,4)"/>
</svg>
